<svg width="6" height="15" viewBox="0 0 6 15" fill="none" xmlns="http://www.w3.org/2000/svg">
<path d="M0.175781 11.9541L0.53125 11.3252C0.781901 11.5348 1.09408 11.708 1.46777 11.8447C1.84603 11.9769 2.23568 12.043 2.63672 12.043C2.9694 12.043 3.27246 11.9928 3.5459 11.8926C3.82389 11.7923 4.05859 11.6556 4.25 11.4824C4.44141 11.3092 4.58952 11.1019 4.69434 10.8604C4.79915 10.6143 4.85156 10.3431 4.85156 10.0469C4.85156 9.79167 4.80827 9.55241 4.72168 9.3291C4.63965 9.10579 4.51432 8.90527 4.3457 8.72754C4.17708 8.5498 3.97201 8.38346 3.73047 8.22852C3.48893 8.07357 3.22005 7.93229 2.92383 7.80469C2.51367 7.6224 2.14909 7.4401 1.83008 7.25781C1.51107 7.07096 1.24219 6.87044 1.02344 6.65625C0.804688 6.44206 0.638346 6.20052 0.524414 5.93164C0.410482 5.66276 0.353516 5.36426 0.353516 5.03613C0.353516 4.70801 0.408203 4.40039 0.517578 4.11328C0.63151 3.82617 0.786458 3.5778 0.982422 3.36816C1.18294 3.15397 1.42676 2.97624 1.71387 2.83496C2.00098 2.68913 2.30859 2.59342 2.63672 2.54785V0.832031H3.32031V2.52734C3.7806 2.54102 4.17025 2.60938 4.48926 2.73242C4.81283 2.85091 5.08171 2.98535 5.2959 3.13574L4.94043 3.75098C4.87207 3.69173 4.77865 3.63021 4.66016 3.56641C4.54167 3.49805 4.40267 3.43424 4.24316 3.375C4.08822 3.31576 3.91048 3.2679 3.70996 3.23145C3.514 3.19043 3.29297 3.16992 3.04688 3.16992C2.70052 3.16992 2.40202 3.22461 2.15137 3.33398C1.90527 3.4388 1.70247 3.57324 1.54297 3.7373C1.38802 3.90137 1.27409 4.08594 1.20117 4.29102C1.13281 4.49154 1.09863 4.69206 1.09863 4.89258C1.09863 5.14779 1.13737 5.37565 1.21484 5.57617C1.29232 5.77214 1.41536 5.95443 1.58398 6.12305C1.75716 6.28711 1.97135 6.44434 2.22656 6.59473C2.48633 6.74056 2.80078 6.89551 3.16992 7.05957C3.55273 7.22819 3.89225 7.41276 4.18848 7.61328C4.48926 7.80924 4.74674 8.02344 4.96094 8.25586C5.17513 8.48828 5.33464 8.74805 5.43945 9.03516C5.54883 9.32227 5.60352 9.64355 5.60352 9.99902C5.60352 10.3044 5.55339 10.6029 5.45312 10.8945C5.35286 11.1816 5.20247 11.446 5.00195 11.6875C4.80143 11.929 4.55078 12.1364 4.25 12.3096C3.94922 12.4827 3.59603 12.6035 3.19043 12.6719V14.3809H2.51367V12.6855C2.30404 12.6855 2.08984 12.6696 1.87109 12.6377C1.6569 12.6012 1.44727 12.5511 1.24219 12.4873C1.03711 12.4189 0.843424 12.3415 0.661133 12.2549C0.478841 12.1637 0.317057 12.0635 0.175781 11.9541Z" fill="#484848"/>
<path d="M0.175781 11.9541L-0.0418594 11.8311L-0.148285 12.0194L0.022738 12.1518L0.175781 11.9541ZM0.53125 11.3252L0.691639 11.1334L0.461339 10.9408L0.313609 11.2022L0.53125 11.3252ZM1.46777 11.8447L1.38187 12.0795L1.38531 12.0807L1.46777 11.8447ZM3.5459 11.8926L3.46108 11.6574L3.45983 11.6579L3.5459 11.8926ZM4.69434 10.8604L4.92368 10.9599L4.92434 10.9583L4.69434 10.8604ZM4.72168 9.3291L4.48697 9.41532L4.48859 9.41948L4.72168 9.3291ZM2.92383 7.80469L2.82229 8.03316L2.82492 8.03429L2.92383 7.80469ZM1.83008 7.25781L1.70372 7.47355L1.70604 7.47487L1.83008 7.25781ZM0.524414 5.93164L0.754602 5.8341L0.524414 5.93164ZM0.517578 4.11328L0.285183 4.02106L0.283956 4.02428L0.517578 4.11328ZM0.982422 3.36816L0.799917 3.19731L0.79979 3.19744L0.982422 3.36816ZM1.71387 2.83496L1.82425 3.05929L1.82708 3.05786L1.71387 2.83496ZM2.63672 2.54785L2.67111 2.79547L2.88672 2.76553V2.54785H2.63672ZM2.63672 0.832031V0.582031H2.38672V0.832031H2.63672ZM3.32031 0.832031H3.57031V0.582031H3.32031V0.832031ZM3.32031 2.52734H3.07031V2.77003L3.31289 2.77723L3.32031 2.52734ZM4.48926 2.73242L4.39928 2.96571L4.40329 2.96718L4.48926 2.73242ZM5.2959 3.13574L5.51236 3.26081L5.62686 3.06265L5.43956 2.93114L5.2959 3.13574ZM4.94043 3.75098L4.7767 3.9399L5.00546 4.13816L5.1569 3.87605L4.94043 3.75098ZM4.66016 3.56641L4.53517 3.78305L4.54163 3.78652L4.66016 3.56641ZM4.24316 3.375L4.15388 3.60852L4.15612 3.60936L4.24316 3.375ZM3.70996 3.23145L3.65873 3.47623L3.66524 3.47741L3.70996 3.23145ZM2.15137 3.33398L2.24934 3.564L2.25135 3.56312L2.15137 3.33398ZM1.54297 3.7373L1.3637 3.56302L1.36122 3.56565L1.54297 3.7373ZM1.20117 4.29102L0.965598 4.20726L0.964544 4.21035L1.20117 4.29102ZM1.21484 5.57617L0.981637 5.66627L0.982354 5.66809L1.21484 5.57617ZM1.58398 6.12305L1.40714 6.29989L1.41205 6.30453L1.58398 6.12305ZM2.22656 6.59473L2.09961 6.81016L2.10418 6.81272L2.22656 6.59473ZM3.16992 7.05957L3.06839 7.28802L3.06915 7.28836L3.16992 7.05957ZM4.18848 7.61328L4.04831 7.82034L4.05201 7.82275L4.18848 7.61328ZM5.43945 9.03516L5.20459 9.1209L5.20583 9.12416L5.43945 9.03516ZM5.45312 10.8945L5.68915 10.977L5.68955 10.9758L5.45312 10.8945ZM3.19043 12.6719L3.14888 12.4254L2.94043 12.4605V12.6719H3.19043ZM3.19043 14.3809V14.6309H3.44043V14.3809H3.19043ZM2.51367 14.3809H2.26367V14.6309H2.51367V14.3809ZM2.51367 12.6855H2.76367V12.4355H2.51367V12.6855ZM1.87109 12.6377L1.82913 12.8842L1.83502 12.8851L1.87109 12.6377ZM1.24219 12.4873L1.16311 12.7245L1.16792 12.726L1.24219 12.4873ZM0.661133 12.2549L0.549307 12.4785L0.553869 12.4807L0.661133 12.2549ZM0.393422 12.0771L0.748891 11.4482L0.313609 11.2022L-0.0418594 11.8311L0.393422 12.0771ZM0.370861 11.517C0.647904 11.7487 0.986767 11.935 1.38188 12.0795L1.55367 11.6099C1.20138 11.4811 0.915898 11.321 0.691639 11.1334L0.370861 11.517ZM1.38531 12.0807C1.7901 12.2222 2.20763 12.293 2.63672 12.293V11.793C2.26373 11.793 1.90196 11.7316 1.55023 11.6087L1.38531 12.0807ZM2.63672 12.293C2.99464 12.293 3.32733 12.239 3.63196 12.1273L3.45983 11.6579C3.21759 11.7467 2.94416 11.793 2.63672 11.793V12.293ZM3.63071 12.1278C3.93492 12.018 4.19895 11.8658 4.41773 11.6678L4.08227 11.297C3.91824 11.4454 3.71286 11.5666 3.46108 11.6574L3.63071 12.1278ZM4.41773 11.6678C4.63609 11.4702 4.80496 11.2334 4.92367 10.9599L4.465 10.7608C4.37407 10.9704 4.24672 11.1483 4.08227 11.297L4.41773 11.6678ZM4.92434 10.9583C5.0437 10.6781 5.10156 10.3731 5.10156 10.0469H4.60156C4.60156 10.3131 4.5546 10.5504 4.46433 10.7624L4.92434 10.9583ZM5.10156 10.0469C5.10156 9.7628 5.05325 9.4927 4.95477 9.23872L4.48859 9.41948C4.56329 9.61212 4.60156 9.82053 4.60156 10.0469H5.10156ZM4.95635 9.2429C4.86223 8.98668 4.7184 8.75715 4.52707 8.55547L4.16434 8.8996C4.31025 9.0534 4.41707 9.22491 4.48701 9.41531L4.95635 9.2429ZM4.52707 8.55547C4.34247 8.36089 4.12113 8.18211 3.86546 8.01809L3.59548 8.43894C3.82288 8.58482 4.0117 8.73872 4.16434 8.8996L4.52707 8.55547ZM3.86546 8.01809C3.61113 7.85494 3.32998 7.70743 3.02273 7.57508L2.82492 8.03429C3.11013 8.15715 3.36674 8.2922 3.59548 8.43894L3.86546 8.01809ZM3.02536 7.57623C2.62128 7.39664 2.26443 7.21808 1.95411 7.04075L1.70604 7.47487C2.03374 7.66213 2.40606 7.84815 2.82229 8.03314L3.02536 7.57623ZM1.95643 7.04209C1.65155 6.86352 1.39984 6.67492 1.19834 6.47762L0.848531 6.83488C1.08454 7.06597 1.37059 7.27841 1.70373 7.47353L1.95643 7.04209ZM1.19834 6.47762C1.00204 6.2854 0.855026 6.0711 0.754602 5.8341L0.294226 6.02918C0.421667 6.32994 0.60734 6.59871 0.848531 6.83488L1.19834 6.47762ZM0.754602 5.8341C0.655268 5.59967 0.603516 5.33489 0.603516 5.03613H0.103516C0.103516 5.39363 0.165696 5.72585 0.294226 6.02918L0.754602 5.8341ZM0.603516 5.03613C0.603516 4.73634 0.653371 4.45908 0.7512 4.20228L0.283956 4.02428C0.163035 4.3417 0.103516 4.67968 0.103516 5.03613H0.603516ZM0.749951 4.20549C0.853243 3.9452 0.992015 3.724 1.16505 3.53889L0.79979 3.19744C0.580902 3.4316 0.409778 3.70715 0.285205 4.02107L0.749951 4.20549ZM1.16493 3.53902C1.34304 3.34877 1.56175 3.18844 1.82424 3.05928L1.60349 2.61065C1.29177 2.76403 1.02285 2.95918 0.799917 3.19731L1.16493 3.53902ZM1.82708 3.05786C2.08876 2.92494 2.36965 2.83734 2.67111 2.79547L2.60233 2.30023C2.24754 2.3495 1.91319 2.45332 1.60065 2.61207L1.82708 3.05786ZM2.88672 2.54785V0.832031H2.38672V2.54785H2.88672ZM2.63672 1.08203H3.32031V0.582031H2.63672V1.08203ZM3.07031 0.832031V2.52734H3.57031V0.832031H3.07031ZM3.31289 2.77723C3.75408 2.79034 4.11403 2.85564 4.39929 2.96567L4.57923 2.49917C4.22646 2.36311 3.80712 2.29169 3.32773 2.27745L3.31289 2.77723ZM4.40329 2.96718C4.71245 3.08039 4.96048 3.20571 5.15224 3.34035L5.43956 2.93114C5.20293 2.765 4.9132 2.62143 4.57522 2.49767L4.40329 2.96718ZM5.07943 3.01067L4.72396 3.62591L5.1569 3.87605L5.51236 3.26081L5.07943 3.01067ZM5.10416 3.56205C5.01697 3.48649 4.90632 3.41502 4.77868 3.34629L4.54163 3.78652C4.65097 3.8454 4.72717 3.89697 4.7767 3.9399L5.10416 3.56205ZM4.78509 3.34986C4.65199 3.27307 4.4998 3.20363 4.33021 3.14064L4.15612 3.60936C4.30554 3.66486 4.43135 3.72302 4.53523 3.78295L4.78509 3.34986ZM4.33245 3.14149C4.16024 3.07564 3.96711 3.0241 3.75468 2.98548L3.66524 3.47741C3.85385 3.51171 4.0162 3.55587 4.15388 3.60851L4.33245 3.14149ZM3.76118 2.98675C3.54506 2.94151 3.30643 2.91992 3.04688 2.91992V3.41992C3.27951 3.41992 3.48294 3.43935 3.65875 3.47614L3.76118 2.98675ZM3.04688 2.91992C2.67495 2.91992 2.34078 2.97857 2.05138 3.10485L2.25135 3.56312C2.46326 3.47065 2.72609 3.41992 3.04688 3.41992V2.91992ZM2.0534 3.10398C1.78187 3.21963 1.54992 3.37151 1.36372 3.56304L1.72222 3.91157C1.85503 3.77497 2.02867 3.65797 2.24933 3.56399L2.0534 3.10398ZM1.36122 3.56565C1.18332 3.75401 1.0506 3.96825 0.965618 4.20726L1.43673 4.37477C1.49758 4.20362 1.59272 4.04873 1.72472 3.90896L1.36122 3.56565ZM0.964544 4.21035C0.887834 4.43536 0.848633 4.6631 0.848633 4.89258H1.34863C1.34863 4.72102 1.37779 4.54771 1.4378 4.37168L0.964544 4.21035ZM0.848633 4.89258C0.848633 5.17296 0.891199 5.43218 0.981644 5.66627L1.44804 5.48607C1.38354 5.31912 1.34863 5.12262 1.34863 4.89258H0.848633ZM0.982354 5.66809C1.07395 5.89978 1.21759 6.1102 1.40721 6.29982L1.76076 5.94627C1.61314 5.79865 1.51068 5.64449 1.44733 5.48426L0.982354 5.66809ZM1.41205 6.30453C1.60172 6.48423 1.83192 6.65235 2.09964 6.81011L2.35349 6.37934C2.11079 6.23632 1.9126 6.08999 1.75592 5.94156L1.41205 6.30453ZM2.10418 6.81272C2.37263 6.96343 2.69445 7.12183 3.06839 7.28802L3.27146 6.83112C2.90711 6.66919 2.60003 6.51769 2.34895 6.37673L2.10418 6.81272ZM3.06915 7.28836C3.44045 7.45191 3.76643 7.62948 4.04834 7.82031L4.32862 7.40625C4.01807 7.19604 3.66501 7.00447 3.2707 6.83078L3.06915 7.28836ZM4.05201 7.82275C4.33771 8.00888 4.57872 8.21002 4.7771 8.42528L5.14478 8.08644C4.91477 7.83685 4.64081 7.60961 4.32495 7.40382L4.05201 7.82275ZM4.7771 8.42528C4.96972 8.63429 5.1115 8.86583 5.20461 9.12089L5.67429 8.94942C5.55778 8.63026 5.38055 8.34227 5.14478 8.08644L4.7771 8.42528ZM5.20583 9.12416C5.30282 9.37875 5.35352 9.66927 5.35352 9.99902H5.85352C5.85352 9.61784 5.79484 9.26578 5.67308 8.94616L5.20583 9.12416ZM5.35352 9.99902C5.35352 10.2764 5.30807 10.5475 5.2167 10.8133L5.68955 10.9758C5.7987 10.6583 5.85352 10.3323 5.85352 9.99902H5.35352ZM5.2171 10.8121C5.12699 11.0702 4.9917 11.3085 4.8096 11.5278L5.19431 11.8472C5.41325 11.5835 5.57874 11.2931 5.68915 10.977L5.2171 10.8121ZM4.8096 11.5278C4.62995 11.7442 4.40301 11.933 4.12526 12.0929L4.37474 12.5262C4.69855 12.3398 4.97291 12.1139 5.19431 11.8472L4.8096 11.5278ZM4.12526 12.0929C3.85449 12.2488 3.53049 12.361 3.14888 12.4254L3.23198 12.9184C3.66157 12.846 4.04395 12.7167 4.37474 12.5262L4.12526 12.0929ZM2.94043 12.6719V14.3809H3.44043V12.6719H2.94043ZM3.19043 14.1309H2.51367V14.6309H3.19043V14.1309ZM2.76367 14.3809V12.6855H2.26367V14.3809H2.76367ZM2.51367 12.4355C2.31674 12.4355 2.11462 12.4206 1.90717 12.3903L1.83502 12.8851C2.06507 12.9186 2.29133 12.9355 2.51367 12.9355V12.4355ZM1.91304 12.3912C1.70966 12.3566 1.51082 12.3091 1.31645 12.2486L1.16792 12.726C1.38371 12.7932 1.60415 12.8459 1.82914 12.8842L1.91304 12.3912ZM1.32124 12.2501C1.12512 12.1848 0.940905 12.111 0.768397 12.0291L0.553869 12.4807C0.745944 12.5719 0.949103 12.6531 1.16313 12.7245L1.32124 12.2501ZM0.772936 12.0313C0.603211 11.9464 0.455583 11.8546 0.328825 11.7564L0.022738 12.1518C0.178532 12.2724 0.354471 12.3811 0.549329 12.4785L0.772936 12.0313Z" fill="#484848"/>
</svg>
