<svg width="13" height="16" viewBox="0 0 13 16" fill="none" xmlns="http://www.w3.org/2000/svg">
<path id="Vector" d="M3.45543 13.993C3.41014 13.957 3.37222 13.9261 3.33351 13.8962C2.62546 13.3545 2.04551 12.6385 1.6411 11.8066C1.32085 11.1578 1.11656 10.449 1.03904 9.71761C0.937537 8.75055 1.0322 7.80508 1.34369 6.89037C1.54942 6.28852 1.84358 5.72687 2.21472 5.22725C2.68656 4.58798 3.25755 4.08114 3.91766 3.68813C4.20309 3.51996 4.50204 3.38042 4.81081 3.27125C4.92837 3.22906 4.92851 3.22834 4.92837 3.09105C4.92837 2.75511 4.92982 2.41888 4.92574 2.08309C4.92469 1.99499 4.94944 1.93492 5.00895 1.87243C5.26278 1.60585 5.50923 1.3314 5.76003 1.06067C5.77873 1.04037 5.79505 0.999183 5.82586 1.01463C5.85035 1.02693 5.83903 1.06668 5.83903 1.09428C5.83982 1.69723 5.84021 2.30018 5.84021 2.90313C5.84021 3.01754 5.84021 3.01597 5.94277 3.00438C6.33986 2.95702 6.74057 2.95764 7.13753 3.00624C7.22311 3.01711 7.23233 3.00953 7.23246 2.91343C7.23246 2.6274 7.2339 2.34137 7.23246 2.05534C7.23137 2.02595 7.23619 1.99665 7.24658 1.96948C7.25697 1.94232 7.27268 1.91793 7.29262 1.89803C7.5533 1.61829 7.8116 1.33612 8.07162 1.05581C8.09203 1.03393 8.11006 0.987169 8.14087 1.00333C8.16812 1.01763 8.15338 1.06439 8.15338 1.09671C8.15434 1.76411 8.15474 2.43151 8.15456 3.09891C8.15456 3.22863 8.15456 3.22934 8.26515 3.26867C8.964 3.51657 9.60993 3.91433 10.1647 4.43839C10.7841 5.01744 11.276 5.74011 11.6042 6.55314C11.7823 6.99173 11.9131 7.45124 11.994 7.9225C12.0097 8.01288 11.9965 8.07666 11.9325 8.14374C11.6988 8.38858 11.4717 8.64086 11.2417 8.8897C11.2255 8.90715 11.2113 8.93919 11.1841 8.92803C11.1568 8.91688 11.1626 8.88283 11.1615 8.85823C11.1484 8.55562 11.1221 8.25501 11.0644 7.95797C10.9256 7.24289 10.6515 6.59576 10.2523 6.00697C9.90149 5.48954 9.47361 5.06636 8.9753 4.72413C8.74802 4.5703 8.50877 4.43841 8.26028 4.32998C8.15825 4.28464 8.15351 4.28879 8.15351 4.40764C8.15351 5.54903 8.15219 6.69057 8.15522 7.83197C8.15522 7.94023 8.12889 8.01889 8.05582 8.09483C7.80673 8.35311 7.56436 8.61897 7.31856 8.8814C7.29763 8.90386 7.27722 8.94976 7.24918 8.93689C7.21613 8.92173 7.23364 8.87268 7.23351 8.83879C7.23272 7.5877 7.23246 6.33661 7.23272 5.08552C7.23272 4.7686 7.23272 4.45169 7.23272 4.13477C7.23272 4.03108 7.23009 4.02622 7.13635 4.01235C6.81577 3.96501 6.49388 3.96343 6.17159 3.98531C6.09509 3.99061 6.01834 3.99104 5.94211 4.00391C5.84877 4.01993 5.83969 4.02793 5.83955 4.13033C5.83955 4.94294 5.83933 5.75554 5.8389 6.56815C5.8389 7.00663 5.83771 7.44511 5.83982 7.88388C5.84109 7.91684 5.83573 7.94971 5.82411 7.98019C5.8125 8.01067 5.7949 8.03803 5.77254 8.06037C5.51476 8.33624 5.25909 8.6154 5.00302 8.89256C4.98564 8.9113 4.97024 8.94977 4.94246 8.93547C4.91732 8.92245 4.9293 8.88341 4.9293 8.85609C4.92877 7.39048 4.92877 5.92492 4.9293 4.45941C4.9293 4.27464 4.92995 4.27635 4.76986 4.34743C4.34452 4.53585 3.94842 4.7943 3.59551 5.1137C3.086 5.57014 2.67226 6.13968 2.38205 6.7841C2.13606 7.32608 1.98431 7.91274 1.93442 8.51457C1.87952 9.1733 1.93074 9.82244 2.11229 10.4576C2.29491 11.102 2.59598 11.6994 2.99727 12.2138C3.41856 12.7554 3.92477 13.1806 4.50906 13.5009C4.96168 13.749 5.44209 13.8886 5.9379 13.9739C6.09403 13.9998 6.2518 14.0124 6.40975 14.0115C7.94089 14.0101 9.47212 14.0101 11.0034 14.0115C11.0386 14.0115 11.0911 13.9903 11.1055 14.0305C11.1198 14.0707 11.0685 14.0944 11.0433 14.1219C10.8025 14.3859 10.5587 14.6469 10.3192 14.913C10.262 14.9767 10.2026 14.9988 10.1217 14.9988C7.45399 14.9969 4.78632 14.9964 2.11874 14.9973C1.78311 14.9973 1.44748 14.9973 1.11185 14.9973C1.08894 14.9973 1.05655 15.0093 1.04536 14.983C1.03417 14.9566 1.06511 14.9391 1.08104 14.9216C1.33961 14.6397 1.59963 14.3593 1.85701 14.0763C1.87635 14.0539 1.89993 14.0364 1.92612 14.0249C1.9523 14.0134 1.98047 14.0083 2.00868 14.0098C2.45841 14.0115 2.90814 14.0108 3.35787 14.0098C3.38644 14.0105 3.41553 14.0173 3.45543 13.993Z" fill="#00431A" stroke="#00431A" stroke-width="0.5"/>
</svg>
