<svg width="18" height="18" viewBox="0 0 18 18" fill="none" xmlns="http://www.w3.org/2000/svg">
<rect width="18" height="18" rx="2" fill="#FD5C5C"/>
<path d="M13.5384 3.48721C13.8074 3.21813 14.2437 3.21813 14.5128 3.48721C14.7819 3.75629 14.7819 4.19256 14.5128 4.46164L9.97443 9L14.5128 13.5384C14.7819 13.8074 14.7819 14.2437 14.5128 14.5128C14.2437 14.7819 13.8074 14.7819 13.5384 14.5128L9 9.97443L4.46164 14.5128C4.19256 14.7819 3.7563 14.7819 3.48721 14.5128C3.21813 14.2437 3.21813 13.8074 3.48721 13.5384L8.02557 9L3.48721 4.46164C3.21813 4.19256 3.21813 3.75629 3.48721 3.48721C3.7563 3.21813 4.19256 3.21813 4.46164 3.48721L9 8.02557L13.5384 3.48721Z" fill="white" stroke="white" stroke-width="0.5"/>
</svg>
